<svg width="137" height="48" viewBox="0 0 137 48" fill="none" xmlns="http://www.w3.org/2000/svg">
<path d="M48.136 24L33.6252 16.5153V31.4847L48.136 24ZM50.1161 22.4528C50.4227 22.6088 50.6774 22.8341 50.8545 23.1058C51.0317 23.3775 51.125 23.686 51.125 24C51.125 24.314 51.0317 24.6225 50.8545 24.8942C50.6774 25.1659 50.4227 25.3912 50.1161 25.5472L34.2077 33.7544C32.9076 34.4257 31.125 33.6588 31.125 32.2072V15.7928C31.125 14.3412 32.9076 13.5743 34.2077 14.2456L50.1161 22.4528Z" fill="#25C749"/>
<path d="M68.3594 26.1367H63.918V23.8047H68.3594C69.1328 23.8047 69.7578 23.6797 70.2344 23.4297C70.7109 23.1797 71.0586 22.8359 71.2773 22.3984C71.5039 21.9531 71.6172 21.4453 71.6172 20.875C71.6172 20.3359 71.5039 19.832 71.2773 19.3633C71.0586 18.8867 70.7109 18.5039 70.2344 18.2148C69.7578 17.9258 69.1328 17.7812 68.3594 17.7812H64.8203V32.5H61.8789V15.4375H68.3594C69.6797 15.4375 70.8008 15.6719 71.7227 16.1406C72.6523 16.6016 73.3594 17.2422 73.8438 18.0625C74.3281 18.875 74.5703 19.8047 74.5703 20.8516C74.5703 21.9531 74.3281 22.8984 73.8438 23.6875C73.3594 24.4766 72.6523 25.082 71.7227 25.5039C70.8008 25.9258 69.6797 26.1367 68.3594 26.1367ZM79.9492 14.5V32.5H77.1133V14.5H79.9492ZM90.1914 29.957V23.9102C90.1914 23.457 90.1094 23.0664 89.9453 22.7383C89.7812 22.4102 89.5312 22.1562 89.1953 21.9766C88.8672 21.7969 88.4531 21.707 87.9531 21.707C87.4922 21.707 87.0938 21.7852 86.7578 21.9414C86.4219 22.0977 86.1602 22.3086 85.9727 22.5742C85.7852 22.8398 85.6914 23.1406 85.6914 23.4766H82.8789C82.8789 22.9766 83 22.4922 83.2422 22.0234C83.4844 21.5547 83.8359 21.1367 84.2969 20.7695C84.7578 20.4023 85.3086 20.1133 85.9492 19.9023C86.5898 19.6914 87.3086 19.5859 88.1055 19.5859C89.0586 19.5859 89.9023 19.7461 90.6367 20.0664C91.3789 20.3867 91.9609 20.8711 92.3828 21.5195C92.8125 22.1602 93.0273 22.9648 93.0273 23.9336V29.5703C93.0273 30.1484 93.0664 30.668 93.1445 31.1289C93.2305 31.582 93.3516 31.9766 93.5078 32.3125V32.5H90.6133C90.4805 32.1953 90.375 31.8086 90.2969 31.3398C90.2266 30.8633 90.1914 30.4023 90.1914 29.957ZM90.6016 24.7891L90.625 26.5352H88.5977C88.0742 26.5352 87.6133 26.5859 87.2148 26.6875C86.8164 26.7812 86.4844 26.9219 86.2188 27.1094C85.9531 27.2969 85.7539 27.5234 85.6211 27.7891C85.4883 28.0547 85.4219 28.3555 85.4219 28.6914C85.4219 29.0273 85.5 29.3359 85.6562 29.6172C85.8125 29.8906 86.0391 30.1055 86.3359 30.2617C86.6406 30.418 87.0078 30.4961 87.4375 30.4961C88.0156 30.4961 88.5195 30.3789 88.9492 30.1445C89.3867 29.9023 89.7305 29.6094 89.9805 29.2656C90.2305 28.9141 90.3633 28.582 90.3789 28.2695L91.293 29.5234C91.1992 29.8438 91.0391 30.1875 90.8125 30.5547C90.5859 30.9219 90.2891 31.2734 89.9219 31.6094C89.5625 31.9375 89.1289 32.207 88.6211 32.418C88.1211 32.6289 87.543 32.7344 86.8867 32.7344C86.0586 32.7344 85.3203 32.5703 84.6719 32.2422C84.0234 31.9062 83.5156 31.457 83.1484 30.8945C82.7812 30.3242 82.5977 29.6797 82.5977 28.9609C82.5977 28.2891 82.7227 27.6953 82.9727 27.1797C83.2305 26.6562 83.6055 26.2188 84.0977 25.8672C84.5977 25.5156 85.207 25.25 85.9258 25.0703C86.6445 24.8828 87.4648 24.7891 88.3867 24.7891H90.6016ZM99.4727 31.1172L102.918 19.8203H105.941L100.855 34.4336C100.738 34.7461 100.586 35.0859 100.398 35.4531C100.211 35.8203 99.9648 36.168 99.6602 36.4961C99.3633 36.832 98.9922 37.1016 98.5469 37.3047C98.1016 37.5156 97.5625 37.6211 96.9297 37.6211C96.6797 37.6211 96.4375 37.5977 96.2031 37.5508C95.9766 37.5117 95.7617 37.4688 95.5586 37.4219L95.5469 35.2656C95.625 35.2734 95.7188 35.2812 95.8281 35.2891C95.9453 35.2969 96.0391 35.3008 96.1094 35.3008C96.5781 35.3008 96.9688 35.2422 97.2812 35.125C97.5938 35.0156 97.8477 34.8359 98.043 34.5859C98.2461 34.3359 98.418 34 98.5586 33.5781L99.4727 31.1172ZM97.5273 19.8203L100.539 29.3125L101.043 32.2891L99.0859 32.793L94.4805 19.8203H97.5273Z" fill="white"/>
</svg>
