<svg width="55" height="56" viewBox="0 0 55 56" fill="none" xmlns="http://www.w3.org/2000/svg">
<rect y="0.5" width="55" height="55" rx="27.5" fill="#FFECEC"/>
<path d="M35.5 19H19.5C18.9696 19 18.4609 19.2107 18.0858 19.5858C17.7107 19.9609 17.5 20.4696 17.5 21V25C17.5 25.5304 17.7107 26.0391 18.0858 26.4142C18.4609 26.7893 18.9696 27 19.5 27H35.5C36.0304 27 36.5391 26.7893 36.9142 26.4142C37.2893 26.0391 37.5 25.5304 37.5 25V21C37.5 20.4696 37.2893 19.9609 36.9142 19.5858C36.5391 19.2107 36.0304 19 35.5 19ZM30.5 23C30.5 23.5523 30.0523 24 29.5 24C28.9477 24 28.5 23.5523 28.5 23C28.5 22.4477 28.9477 22 29.5 22C30.0523 22 30.5 22.4477 30.5 23ZM34.5 23C34.5 23.5523 34.0523 24 33.5 24C32.9477 24 32.5 23.5523 32.5 23C32.5 22.4477 32.9477 22 33.5 22C34.0523 22 34.5 22.4477 34.5 23ZM35.5 29H19.5C18.9696 29 18.4609 29.2107 18.0858 29.5858C17.7107 29.9609 17.5 30.4696 17.5 31V35C17.5 35.5304 17.7107 36.0391 18.0858 36.4142C18.4609 36.7893 18.9696 37 19.5 37H35.5C36.0304 37 36.5391 36.7893 36.9142 36.4142C37.2893 36.0391 37.5 35.5304 37.5 35V31C37.5 30.4696 37.2893 29.9609 36.9142 29.5858C36.5391 29.2107 36.0304 29 35.5 29ZM30.5 33C30.5 33.5523 30.0523 34 29.5 34C28.9477 34 28.5 33.5523 28.5 33C28.5 32.4477 28.9477 32 29.5 32C30.0523 32 30.5 32.4477 30.5 33ZM34.5 33C34.5 33.5523 34.0523 34 33.5 34C32.9477 34 32.5 33.5523 32.5 33C32.5 32.4477 32.9477 32 33.5 32C34.0523 32 34.5 32.4477 34.5 33Z" fill="#D80027"/>
</svg>
